HIERARCHY
ROOT Hips
{
	OFFSET 0.00000 0.00000 0.00000
	CHANNELS 6 Xposition Yposition Zposition Zrotation Yrotation Xrotation 
	JOINT LHipJoint
	{
		OFFSET 0 0 0
		CHANNELS 3 Zrotation Yrotation Xrotation
		JOINT LeftUpLeg
		{
			OFFSET 1.57338 -1.94743 0.52196
			CHANNELS 3 Zrotation Yrotation Xrotation
			JOINT LeftLeg
			{
				OFFSET 2.60333 -7.15259 0.00000
				CHANNELS 3 Zrotation Yrotation Xrotation
				JOINT LeftFoot
				{
					OFFSET 2.77855 -7.63400 0.00000
					CHANNELS 3 Zrotation Yrotation Xrotation
					JOINT LeftToeBase
					{
						OFFSET 0.19847 -0.54529 2.28466
						CHANNELS 3 Zrotation Yrotation Xrotation
						End Site
						{
							OFFSET 0.00000 -0.00000 1.17993
						}
					}
				}
			}
		}
	}
	JOINT RHipJoint
	{
		OFFSET 0 0 0
		CHANNELS 3 Zrotation Yrotation Xrotation
		JOINT RightUpLeg
		{
			OFFSET -1.61527 -1.94743 0.52196
			CHANNELS 3 Zrotation Yrotation Xrotation
			JOINT RightLeg
			{
				OFFSET -2.53829 -6.97390 0.00000
				CHANNELS 3 Zrotation Yrotation Xrotation
				JOINT RightFoot
				{
					OFFSET -2.80762 -7.71387 0.00000
					CHANNELS 3 Zrotation Yrotation Xrotation
					JOINT RightToeBase
					{
						OFFSET -0.30536 -0.83898 2.28801
						CHANNELS 3 Zrotation Yrotation Xrotation
						End Site
						{
							OFFSET -0.00000 -0.00000 1.21323
						}
					}
				}
			}
		}
	}
	JOINT LowerBack
	{
		OFFSET 0 0 0
		CHANNELS 3 Zrotation Yrotation Xrotation
		JOINT Spine
		{
			OFFSET -0.04381 1.99497 -0.19778
			CHANNELS 3 Zrotation Yrotation Xrotation
			JOINT Spine1
			{
				OFFSET -0.01959 2.01295 -0.04372
				CHANNELS 3 Zrotation Yrotation Xrotation
				JOINT Neck
				{
					OFFSET 0 0 0
					CHANNELS 3 Zrotation Yrotation Xrotation
					JOINT Neck1
					{
						OFFSET -0.05459 1.76913 0.09708
						CHANNELS 3 Zrotation Yrotation Xrotation
						JOINT Head
						{
							OFFSET 0.09461 1.77368 -0.11172
							CHANNELS 3 Zrotation Yrotation Xrotation
							End Site
							{
								OFFSET 0.03812 1.78157 -0.04834
							}
						}
					}
				}
				JOINT LeftShoulder
				{
					OFFSET 0 0 0
					CHANNELS 3 Zrotation Yrotation Xrotation
					JOINT LeftArm
					{
						OFFSET 3.50922 1.24034 -0.28866
						CHANNELS 3 Zrotation Yrotation Xrotation
						JOINT LeftForeArm
						{
							OFFSET 5.40188 -0.00000 0.00000
							CHANNELS 3 Zrotation Yrotation Xrotation
							JOINT LeftHand
							{
								OFFSET 3.68559 -0.00000 0.00000
								CHANNELS 3 Zrotation Yrotation Xrotation
								JOINT LeftFingerBase
								{
									OFFSET 0 0 0
									CHANNELS 3 Zrotation Yrotation Xrotation
									JOINT LeftHandIndex1
									{
										OFFSET 0.61753 -0.00000 0.00000
										CHANNELS 3 Zrotation Yrotation Xrotation
										End Site
										{
											OFFSET 0.49787 -0.00000 0.00000
										}
									}
								}
								JOINT LThumb
								{
									OFFSET 0 0 0
									CHANNELS 3 Zrotation Yrotation Xrotation
									End Site
									{
										OFFSET 0.50547 -0.00000 0.50547
									}
								}
							}
						}
					}
				}
				JOINT RightShoulder
				{
					OFFSET 0 0 0
					CHANNELS 3 Zrotation Yrotation Xrotation
					JOINT RightArm
					{
						OFFSET -2.95373 1.39649 -0.27346
						CHANNELS 3 Zrotation Yrotation Xrotation
						JOINT RightForeArm
						{
							OFFSET -6.10670 -0.00000 -0.00000
							CHANNELS 3 Zrotation Yrotation Xrotation
							JOINT RightHand
							{
								OFFSET -3.63052 -0.00000 0.00000
								CHANNELS 3 Zrotation Yrotation Xrotation
								JOINT RightFingerBase
								{
									OFFSET 0 0 0
									CHANNELS 3 Zrotation Yrotation Xrotation
									JOINT RightHandIndex1
									{
										OFFSET -0.58385 -0.00000 0.00000
										CHANNELS 3 Zrotation Yrotation Xrotation
										End Site
										{
											OFFSET -0.47071 -0.00000 0.00000
										}
									}
								}
								JOINT RThumb
								{
									OFFSET 0 0 0
									CHANNELS 3 Zrotation Yrotation Xrotation
									End Site
									{
										OFFSET -0.47790 -0.00000 0.47790
									}
								}
							}
						}
					}
				}
			}
		}
	}
}
MOTION
Frames: 10
Frame Time: .0083333
-8.5728 18.6054 3.9395 0 0 0 0 0 0 -21 0 0 0 0 0 0 0 0 0 0 0 0 0 0 21 0 0 0 0 0 0 0 0 0 0 0 0 0 0 0 0 0 0 0 0 0 0 -16 0 0 21 0 0 11 0 0 0 -8 0 0 0 0 0 0 0 0 0 0 0 0 0 0 0 0 0 0 0 0 8 0 0 0 0 0 0 0 0 0 0 0 0 0 0 0 0 0
-8.5728 18.6054 3.9395 0.2080 12.8823 0.4935 0.0000 0.0000 0.0000 -21.9180 -5.1860 0.9060 1.5928 7.9606 22.5945 2.2810 17.6673 -39.1793 0.1743 2.6897 7.4160 0.0000 0.0000 0.0000 14.7335 23.3065 -5.1361 -1.8704 -8.5907 24.5231 -0.1743 -12.5000 -19.8540 -0.0329 1.1707 -3.2186 -4.6091 -1.7552 1.3794 -0.5604 -2.4077 0.2434 2.0415 -1.1985 -0.3575 -11.6510 -11.7441 -4.4315 10.7636 -16.9643 18.0594 3.7661 -8.1055 8.2439 -0.0000 -0.0000 0.0000 -82.2381 -0.6215 52.0053 84.6475 -59.8915 -55.3663 -0.0000 -0.0000 1.8675 13.1186 20.4082 4.6460 -7.1250 0.0000 -0.0000 -15.2807 50.2584 -2.0218 -0.0000 -0.0000 0.0000 74.1861 10.7551 65.3220 -64.0331 57.2922 -37.7164 0.0000 0.0000 10.4396 5.7346 1.6551 0.1662 7.1250 -0.0000 -0.0000 24.3810 -27.8744 11.1110
-8.5617 18.5999 3.9657 0.6065 13.1513 0.1119 0.0000 0.0000 0.0000 -22.3981 -4.8715 1.8701 1.4862 7.7019 21.8124 2.1722 17.8481 -38.8040 0.1657 2.6223 7.2290 0.0000 0.0000 0.0000 14.4794 22.8986 -4.7988 -1.9516 -8.7646 25.0616 -0.2406 -12.2118 -20.2233 -0.0344 1.1971 -3.2913 -5.1174 -1.7314 1.5869 -0.7008 -2.3897 0.4315 2.1838 -1.1940 -0.2667 -11.5856 -11.7448 -4.5658 10.7274 -16.9644 18.1755 3.7354 -8.0962 8.2974 -0.0000 0.0000 0.0000 -82.2966 -0.4816 51.1051 81.2430 -59.7082 -52.4237 -0.0000 -0.0000 2.1087 13.3248 20.5098 4.7437 -7.1250 0.0000 -0.0000 -15.1259 50.3901 -2.0502 -0.0000 0.0000 0.0000 74.4096 10.2617 64.7966 -61.7724 56.7640 -35.8198 0.0000 0.0000 9.9738 4.6015 1.8110 0.1457 7.1250 -0.0000 -0.0000 23.5430 -27.7733 10.7210
-8.5392 18.5914 3.9841 1.7501 13.4243 0.0251 0.0000 0.0000 0.0000 -23.7314 -4.6786 2.5404 1.4352 7.5744 21.4287 2.1230 17.9067 -38.6133 0.1575 2.5573 7.0487 0.0000 0.0000 0.0000 13.2274 22.1010 -4.6850 -2.0044 -8.8753 25.4061 -0.3156 -11.6149 -20.3221 -0.0423 1.3277 -3.6509 -6.1618 -1.7093 1.7141 -1.0897 -2.3825 0.5197 2.3681 -1.1923 -0.2212 -11.5182 -11.7403 -4.4587 10.6632 -16.9630 18.1923 3.7115 -8.1003 8.2715 0.0000 0.0000 0.0000 -82.3738 -0.1351 50.1704 77.8907 -59.4386 -49.5328 -0.0000 -0.0000 2.4008 13.7649 20.2960 4.8570 -7.1250 0.0000 -0.0000 -14.6201 50.2498 -1.9278 0.0000 0.0000 0.0000 74.7421 9.6235 64.1427 -59.4990 56.1750 -33.9246 0.0000 0.0000 9.6978 3.4886 1.9146 0.1167 7.1250 -0.0000 -0.0000 22.7264 -27.7150 10.3203
-8.5207 18.5934 3.9810 1.8444 13.3486 0.2186 0.0000 0.0000 0.0000 -23.9038 -4.7018 2.5083 1.4018 7.4894 21.1737 2.0992 18.0314 -38.6033 0.1696 2.6533 7.3150 0.0000 0.0000 0.0000 12.9588 22.0873 -5.0504 -2.0400 -8.9490 25.6359 -0.3308 -11.4540 -20.3000 -0.0466 1.3932 -3.8314 -6.1983 -1.5992 1.5658 -1.1396 -2.2294 0.4236 2.3327 -1.1131 -0.2509 -11.5864 -11.7409 -4.1774 10.7015 -16.9734 18.0470 3.7516 -8.1207 8.1837 -0.0000 -0.0000 0.0000 -82.5430 0.2422 49.2404 74.7649 -59.1045 -46.8457 -0.0000 -0.0000 2.7414 14.3873 20.4721 5.1267 -7.1250 0.0000 -0.0000 -14.0955 50.5213 -1.9516 -0.0000 -0.0000 0.0000 75.0512 8.9214 63.3098 -57.2598 55.5344 -32.0712 0.0000 0.0000 9.4546 2.0240 1.9205 0.0679 7.1250 -0.0000 -0.0000 21.6710 -27.7534 9.7461
-8.5075 18.5973 3.9820 1.4049 13.2646 0.4746 0.0000 0.0000 0.0000 -23.4306 -4.7710 2.1573 1.3907 7.4612 21.0891 2.0818 18.0885 -38.5666 0.1712 2.6656 7.3492 0.0000 0.0000 0.0000 13.2821 22.3502 -5.4724 -2.0611 -8.9922 25.7709 -0.3155 -11.5991 -20.3030 -0.0539 1.4977 -4.1194 -5.7977 -1.5230 1.1491 -0.9904 -2.0956 0.3304 2.2506 -1.0480 -0.1336 -11.7827 -11.7453 -3.9989 10.7611 -16.9757 17.9469 3.8111 -8.1384 8.1424 -0.0000 -0.0000 0.0000 -82.7774 0.5374 48.3297 71.6412 -58.6874 -44.1708 -0.0000 -0.0000 2.6019 15.3713 21.0347 5.6353 -7.1250 0.0000 -0.0000 -13.3720 51.2372 -2.0861 -0.0000 -0.0000 0.0000 75.2537 8.3468 62.5872 -54.8974 54.7894 -30.1321 0.0000 0.0000 8.9649 0.0950 2.1441 0.0036 7.1250 -0.0000 -0.0000 20.2285 -27.5936 9.0931
-8.4919 18.5973 3.9907 1.3549 13.4950 0.6882 0.0000 0.0000 0.0000 -23.3795 -4.9484 1.8588 1.4175 7.5296 21.2941 2.0657 18.0499 -38.4546 0.1583 2.5635 7.0657 0.0000 0.0000 0.0000 13.2318 22.3426 -5.6201 -2.0548 -8.9794 25.7309 -0.3041 -11.7841 -20.3948 -0.0611 1.5949 -4.3874 -5.7237 -1.5315 0.7987 -1.0066 -2.0834 0.2706 2.1831 -1.0441 -0.0029 -11.7895 -11.7389 -3.8730 10.7202 -16.9682 17.9459 3.8078 -8.1433 8.1156 -0.0000 -0.0000 0.0000 -82.8918 0.8056 47.4937 68.0480 -58.0985 -41.1103 -0.0000 -0.0000 2.0260 16.4246 20.1197 5.7900 -7.1250 0.0000 -0.0000 -12.0022 50.4963 -1.6463 -0.0000 -0.0000 0.0000 75.5679 7.8048 61.8463 -52.3278 53.8923 -28.0442 0.0000 0.0000 8.6961 -1.3131 2.4254 -0.0556 7.1250 -0.0000 -0.0000 19.1504 -27.3577 8.6654
-8.4794 18.5969 3.9964 1.2762 13.7694 0.7972 0.0000 0.0000 0.0000 -23.3162 -5.2392 1.6990 1.4464 7.6027 21.5136 2.1157 17.8545 -38.5333 0.1659 2.6243 7.2345 0.0000 0.0000 0.0000 13.2469 22.2676 -5.6654 -2.0454 -8.9600 25.6704 -0.3036 -11.9026 -20.5271 -0.0559 1.5258 -4.1967 -5.6243 -1.5334 0.6364 -1.0563 -2.0757 0.2195 2.0727 -1.0400 0.0295 -11.6827 -11.7278 -3.9352 10.6045 -16.9522 18.1264 3.7514 -8.1319 8.1645 -0.0000 0.0000 0.0000 -82.8413 1.0816 46.6414 64.4915 -57.3926 -38.1024 -0.0000 -0.0000 1.6187 16.9922 19.3175 5.7723 -7.1250 0.0000 -0.0000 -11.1720 49.7790 -1.3310 -0.0000 0.0000 0.0000 75.9749 7.3879 60.9903 -49.6309 52.8456 -25.8797 0.0000 0.0000 8.6579 -2.1588 2.5329 -0.0955 7.1250 -0.0000 -0.0000 18.5124 -27.2706 8.3860
-8.4719 18.5961 3.9968 1.1254 13.9146 0.8238 0.0000 0.0000 0.0000 -23.1638 -5.3557 1.6064 1.4589 7.6341 21.6081 2.1382 17.7300 -38.5382 0.1724 2.6746 7.3741 0.0000 0.0000 0.0000 13.3637 22.2462 -5.7143 -2.0468 -8.9629 25.6794 -0.3045 -11.9510 -20.5923 -0.0463 1.3894 -3.8208 -5.5256 -1.4761 0.6214 -1.0617 -1.9993 0.1839 2.0125 -1.0002 -0.0082 -11.7188 -11.7453 -4.0391 10.6295 -16.9909 18.3384 3.7511 -8.1423 8.2645 -0.0000 -0.0000 0.0000 -82.7703 1.2760 45.7423 61.0573 -56.5851 -35.2222 -0.0000 -0.0000 1.5008 17.0661 19.3753 5.8153 -7.1250 0.0000 -0.0000 -11.1209 49.8488 -1.3441 -0.0000 -0.0000 0.0000 76.3873 7.0299 60.0474 -47.0322 51.7261 -23.8237 0.0000 0.0000 8.5352 -3.1738 2.6241 -0.1455 7.1250 -0.0000 -0.0000 17.7513 -27.1989 8.0388
-8.4608 18.5941 3.9994 1.1713 13.9982 0.8572 0.0000 0.0000 0.0000 -23.2244 -5.2984 1.5157 1.4704 7.6628 21.6944 2.1068 17.7283 -38.3824 0.1536 2.5257 6.9610 0.0000 0.0000 0.0000 13.2584 22.2061 -5.7256 -2.0454 -8.9599 25.6700 -0.3087 -11.9399 -20.6232 -0.0449 1.3672 -3.7597 -5.6557 -1.4364 0.5747 -1.0676 -1.9434 0.1887 2.0774 -0.9732 0.0228 -11.7879 -11.7335 -4.0375 10.6738 -16.9804 18.3829 3.7767 -8.1374 8.2883 0.0000 0.0000 0.0000 -82.7752 1.3114 44.7413 57.3932 -55.5743 -32.1813 -0.0000 -0.0000 1.2872 17.0541 19.3419 5.8014 -7.1250 0.0000 -0.0000 -11.1210 49.8133 -1.3343 0.0000 0.0000 0.0000 76.7334 6.7070 59.1312 -44.5316 50.5370 -21.8766 0.0000 0.0000 8.4243 -4.7843 2.2211 -0.1859 7.1250 -0.0000 -0.0000 16.6194 -27.6058 7.3144
